<svg id="visual" viewBox="0 0 960 540" width="960" height="540" xmlns="http://www.w3.org/2000/svg" xmlns:xlink="http://www.w3.org/1999/xlink" version="1.1"><rect x="0" y="0" width="960" height="540" fill="#fff"></rect><defs><linearGradient id="grad1_0" x1="43.8%" y1="100%" x2="100%" y2="0%"><stop offset="14.444444444444446%" stop-color="#ffffff" stop-opacity="1"></stop><stop offset="85.55555555555554%" stop-color="#ffffff" stop-opacity="1"></stop></linearGradient></defs><defs><linearGradient id="grad2_0" x1="0%" y1="100%" x2="56.3%" y2="0%"><stop offset="14.444444444444446%" stop-color="#ffffff" stop-opacity="1"></stop><stop offset="85.55555555555554%" stop-color="#ffffff" stop-opacity="1"></stop></linearGradient></defs><g transform="translate(960, 540)"><path d="M-326 0C-335.1 -40 -344.2 -79.9 -323.4 -105.1C-302.5 -130.2 -251.8 -140.6 -227.3 -165.2C-202.9 -189.7 -204.9 -228.5 -189.9 -261.3C-174.9 -294.1 -142.9 -321 -108.5 -333.8C-74 -346.6 -37 -345.3 0 -344L0 0Z" fill="#3583f9"></path></g><g transform="translate(0, 0)"><path d="M351 0C350.2 39.6 349.4 79.1 329.1 106.9C308.7 134.7 268.9 150.8 245.9 178.7C223 206.6 216.9 246.4 193.4 266.2C169.9 286 129.1 285.8 93.9 289.1C58.8 292.4 29.4 299.2 0 306L0 0Z" fill="#3583f9"></path></g></svg>