<?xml version="1.0" encoding="UTF-8"?>
<!DOCTYPE svg PUBLIC "-//W3C//DTD SVG 1.1//EN" "http://www.w3.org/Graphics/SVG/1.1/DTD/svg11.dtd">
<svg xmlns="http://www.w3.org/2000/svg" version="1.1" width="500px" height="281px" style="shape-rendering:geometricPrecision; text-rendering:geometricPrecision; image-rendering:optimizeQuality; fill-rule:evenodd; clip-rule:evenodd" xmlns:xlink="http://www.w3.org/1999/xlink">
<g><path style="opacity:1" fill="#fefeff" d="M -0.5,-0.5 C 41.8333,-0.5 84.1667,-0.5 126.5,-0.5C 126.861,11.2144 126.361,22.8811 125,34.5C 122.167,44 116,50.1667 106.5,53C 97.6351,55.7997 88.6351,58.133 79.5,60C 70.6781,62.4827 63.8447,67.6494 59,75.5C 54.6085,85.3406 50.6085,95.3406 47,105.5C 40.5458,114.652 31.7125,120.152 20.5,122C 13.5258,123.385 6.5258,124.551 -0.5,125.5C -0.5,83.5 -0.5,41.5 -0.5,-0.5 Z"/></g>
<g><path style="opacity:1" fill="#0066ff" d="M 126.5,-0.5 C 250.833,-0.5 375.167,-0.5 499.5,-0.5C 499.5,51.1667 499.5,102.833 499.5,154.5C 494.257,161.28 488.757,167.947 483,174.5C 474.41,184.76 463.577,191.26 450.5,194C 411.208,193.977 386.375,212.811 376,250.5C 374.184,260.416 373.35,270.416 373.5,280.5C 248.833,280.5 124.167,280.5 -0.5,280.5C -0.5,228.833 -0.5,177.167 -0.5,125.5C 6.5258,124.551 13.5258,123.385 20.5,122C 31.7125,120.152 40.5458,114.652 47,105.5C 50.6085,95.3406 54.6085,85.3406 59,75.5C 63.8447,67.6494 70.6781,62.4827 79.5,60C 88.6351,58.133 97.6351,55.7997 106.5,53C 116,50.1667 122.167,44 125,34.5C 126.361,22.8811 126.861,11.2144 126.5,-0.5 Z"/></g>
<g><path style="opacity:1" fill="#fefeff" d="M 499.5,154.5 C 499.5,196.5 499.5,238.5 499.5,280.5C 457.5,280.5 415.5,280.5 373.5,280.5C 373.35,270.416 374.184,260.416 376,250.5C 386.375,212.811 411.208,193.977 450.5,194C 463.577,191.26 474.41,184.76 483,174.5C 488.757,167.947 494.257,161.28 499.5,154.5 Z"/></g>
</svg>
