<svg id="visual" viewBox="0 0 540 960" width="540" height="960" xmlns="http://www.w3.org/2000/svg" xmlns:xlink="http://www.w3.org/1999/xlink" version="1.1"><rect x="0" y="0" width="540" height="960" fill="#0066FF"></rect><defs><linearGradient id="grad1_0" x1="0%" y1="100%" x2="100%" y2="0%"><stop offset="30%" stop-color="#0066ff" stop-opacity="1"></stop><stop offset="70%" stop-color="#0066ff" stop-opacity="1"></stop></linearGradient></defs><defs><linearGradient id="grad2_0" x1="0%" y1="100%" x2="100%" y2="0%"><stop offset="30%" stop-color="#0066ff" stop-opacity="1"></stop><stop offset="70%" stop-color="#0066ff" stop-opacity="1"></stop></linearGradient></defs><g transform="translate(540, 960)"><path d="M-243 0C-214.6 -21.6 -186.2 -43.1 -178.3 -73.9C-170.4 -104.6 -183.1 -144.5 -171.8 -171.8C-160.5 -199.1 -125.2 -213.8 -92.6 -223.6C-60 -233.3 -30 -238.2 0 -243L0 0Z" fill="#fff"></path></g><g transform="translate(0, 0)"><path d="M243 0C217.5 24.8 192.1 49.6 177.4 73.5C162.7 97.3 158.8 120.2 147.8 147.8C136.8 175.4 118.8 207.8 93 224.5C67.2 241.2 33.6 242.1 0 243L0 0Z" fill="#fff"></path></g></svg>