<svg id="visual" viewBox="0 0 540 960" width="540" height="960" xmlns="http://www.w3.org/2000/svg" xmlns:xlink="http://www.w3.org/1999/xlink" version="1.1"><rect x="0" y="0" width="540" height="960" fill="#fff"></rect><defs><linearGradient id="grad1_0" x1="0%" y1="100%" x2="100%" y2="0%"><stop offset="30%" stop-color="#ffffff" stop-opacity="1"></stop><stop offset="70%" stop-color="#ffffff" stop-opacity="1"></stop></linearGradient></defs><defs><linearGradient id="grad2_0" x1="0%" y1="100%" x2="100%" y2="0%"><stop offset="30%" stop-color="#ffffff" stop-opacity="1"></stop><stop offset="70%" stop-color="#ffffff" stop-opacity="1"></stop></linearGradient></defs><g transform="translate(540, 960)"><path d="M-387 0C-406.1 -47.9 -425.3 -95.8 -409 -132.9C-392.7 -170 -340.9 -196.3 -304.2 -221C-267.5 -245.8 -245.8 -269 -221.6 -305C-197.4 -341 -170.8 -389.9 -133.5 -410.9C-96.2 -431.8 -48.1 -424.9 0 -418L0 0Z" fill="#0066ff"></path></g><g transform="translate(0, 0)"><path d="M355 0C354.9 35.9 354.8 71.7 358.5 116.5C362.3 161.3 369.9 214.9 349.5 253.9C329.1 292.9 280.7 317.3 235.1 323.6C189.5 329.9 146.6 318.2 107.8 331.9C69.1 345.6 34.6 384.8 0 424L0 0Z" fill="#0066ff"></path></g></svg>