<svg id="visual" viewBox="0 0 800 1180" width="800" height="1180" xmlns="http://www.w3.org/2000/svg" xmlns:xlink="http://www.w3.org/1999/xlink" version="1.1"><rect x="0" y="0" width="800" height="1180" fill="#0066FF"></rect><defs><linearGradient id="grad1_0" x1="0%" y1="100%" x2="100%" y2="0%"><stop offset="30%" stop-color="#0066ff" stop-opacity="1"></stop><stop offset="70%" stop-color="#0066ff" stop-opacity="1"></stop></linearGradient></defs><defs><linearGradient id="grad2_0" x1="0%" y1="100%" x2="100%" y2="0%"><stop offset="30%" stop-color="#0066ff" stop-opacity="1"></stop><stop offset="70%" stop-color="#0066ff" stop-opacity="1"></stop></linearGradient></defs><g transform="translate(800, 1180)"><path d="M-320.8 0C-324.1 -49.6 -327.3 -99.3 -296.3 -122.8C-265.4 -146.2 -200.1 -143.5 -167.6 -167.6C-135.1 -191.7 -135.4 -242.5 -112.9 -272.5C-90.4 -302.5 -45.2 -311.7 0 -320.8L0 0Z" fill="#fff"></path></g><g transform="translate(0, 0)"><path d="M320.8 0C322.8 48.1 324.8 96.3 296.3 122.8C267.9 149.2 209 154.1 175.4 175.4C141.7 196.7 133.3 234.5 108.3 261.5C83.3 288.4 41.6 304.6 0 320.8L0 0Z" fill="#fff"></path></g></svg>